<svg width="420" height="520" viewBox="0 0 420 520" xmlns="http://www.w3.org/2000/svg">
  <defs>
    <linearGradient id="bgHannah" x1="0" x2="0" y1="0" y2="1">
      <stop offset="0%" stop-color="#ffeef7"/>
      <stop offset="100%" stop-color="#ffd6e9"/>
    </linearGradient>
  </defs>
  <rect width="420" height="520" rx="40" fill="url(#bgHannah)"/>
  <g transform="translate(90 90)">
    <ellipse cx="120" cy="280" rx="120" ry="60" fill="#f6b2c6" opacity="0.25"/>
    <path d="M60 210c0 80 120 80 120 0V160H60z" fill="#fff" stroke="#d46a90" stroke-width="6"/>
    <circle cx="120" cy="120" r="90" fill="#fdd9e6" stroke="#d46a90" stroke-width="6"/>
    <path d="M50 120c0-60 50-110 110-110s110 50 110 110c0 50-26 92-63 106" fill="#6c3b4a"/>
    <circle cx="92" cy="110" r="14" fill="#2f2a2f"/>
    <circle cx="148" cy="110" r="14" fill="#2f2a2f"/>
    <path d="M94 150c18 14 34 14 52 0" fill="none" stroke="#2f2a2f" stroke-width="6" stroke-linecap="round"/>
    <path d="M40 72c28-32 108-48 160 0" fill="none" stroke="#6c3b4a" stroke-width="18" stroke-linecap="round"/>
    <circle cx="180" cy="180" r="20" fill="#fff" opacity="0.6"/>
  </g>
</svg>
